<!--?xml version="1.0" standalone="no"?-->
              <svg id="sw-js-blob-svg" viewBox="0 0 100 100" xmlns="http://www.w3.org/2000/svg" version="1.1">
                    <defs> 
                        <linearGradient id="sw-gradient" x1="0" x2="1" y1="1" y2="0">
                            <stop id="stop1" stop-color="rgba(248, 117, 55, 1)" offset="0%"></stop>
                            <stop id="stop2" stop-color="rgba(255, 232, 225, 1)" offset="100%"></stop>
                        </linearGradient>
                    </defs>
                <path fill="url(#sw-gradient)" d="M14.9,-20.7C19.9,-16.9,24.9,-13.3,25.2,-9C25.5,-4.7,21.2,0.4,19.5,6.5C17.7,12.6,18.7,19.8,15.9,26C13.1,32.3,6.5,37.6,-1.6,39.8C-9.7,42,-19.5,41.1,-26,36C-32.4,31,-35.7,21.8,-34.8,13.8C-34,5.8,-29.1,-1,-27,-9.2C-25,-17.5,-25.8,-27.1,-21.8,-31.2C-17.8,-35.3,-8.9,-33.9,-2,-31.2C4.9,-28.5,9.9,-24.4,14.9,-20.7Z" width="100%" height="100%" transform="translate(50 50)" stroke-width="0" style="transition: all 0.3s ease 0s;"></path>
              </svg>